<svg width="411" height="73" viewBox="0 0 411 73" fill="none" xmlns="http://www.w3.org/2000/svg">
<path d="M12.976 21.024V42.984C12.976 44.472 13.312 45.552 13.984 46.224C14.704 46.848 15.904 47.16 17.584 47.16H22.624V54H16.144C12.448 54 9.616 53.136 7.648 51.408C5.68 49.68 4.696 46.872 4.696 42.984V21.024H0.0160001V14.328H4.696V4.464H12.976V14.328H22.624V21.024H12.976ZM47.3971 54.648C43.6531 54.648 40.2691 53.808 37.2451 52.128C34.2211 50.4 31.8451 48 30.1171 44.928C28.3891 41.808 27.5251 38.208 27.5251 34.128C27.5251 30.096 28.4131 26.52 30.1891 23.4C31.9651 20.28 34.3891 17.88 37.4611 16.2C40.5331 14.52 43.9651 13.68 47.7571 13.68C51.5491 13.68 54.9811 14.52 58.0531 16.2C61.1251 17.88 63.5491 20.28 65.3251 23.4C67.1011 26.52 67.9891 30.096 67.9891 34.128C67.9891 38.16 67.0771 41.736 65.2531 44.856C63.4291 47.976 60.9331 50.4 57.7651 52.128C54.6451 53.808 51.1891 54.648 47.3971 54.648ZM47.3971 47.52C49.5091 47.52 51.4771 47.016 53.3011 46.008C55.1731 45 56.6851 43.488 57.8371 41.472C58.9891 39.456 59.5651 37.008 59.5651 34.128C59.5651 31.248 59.0131 28.824 57.9091 26.856C56.8051 24.84 55.3411 23.328 53.5171 22.32C51.6931 21.312 49.7251 20.808 47.6131 20.808C45.5011 20.808 43.5331 21.312 41.7091 22.32C39.9331 23.328 38.5171 24.84 37.4611 26.856C36.4051 28.824 35.8771 31.248 35.8771 34.128C35.8771 38.4 36.9571 41.712 39.1171 44.064C41.3251 46.368 44.0851 47.52 47.3971 47.52ZM73.3671 33.984C73.3671 30 74.1831 26.472 75.8151 23.4C77.4951 20.328 79.7511 17.952 82.5831 16.272C85.4631 14.544 88.6551 13.68 92.1591 13.68C94.7511 13.68 97.2951 14.256 99.7911 15.408C102.335 16.512 104.351 18 105.839 19.872V0.719999H114.119V54H105.839V48.024C104.495 49.944 102.623 51.528 100.223 52.776C97.8711 54.024 95.1591 54.648 92.0871 54.648C88.6311 54.648 85.4631 53.784 82.5831 52.056C79.7511 50.28 77.4951 47.832 75.8151 44.712C74.1831 41.544 73.3671 37.968 73.3671 33.984ZM105.839 34.128C105.839 31.392 105.263 29.016 104.111 27C103.007 24.984 101.543 23.448 99.7191 22.392C97.8951 21.336 95.9271 20.808 93.8151 20.808C91.7031 20.808 89.7351 21.336 87.9111 22.392C86.0871 23.4 84.5991 24.912 83.4471 26.928C82.3431 28.896 81.7911 31.248 81.7911 33.984C81.7911 36.72 82.3431 39.12 83.4471 41.184C84.5991 43.248 86.0871 44.832 87.9111 45.936C89.7831 46.992 91.7511 47.52 93.8151 47.52C95.9271 47.52 97.8951 46.992 99.7191 45.936C101.543 44.88 103.007 43.344 104.111 41.328C105.263 39.264 105.839 36.864 105.839 34.128ZM142.108 54.648C138.364 54.648 134.98 53.808 131.956 52.128C128.932 50.4 126.556 48 124.828 44.928C123.1 41.808 122.236 38.208 122.236 34.128C122.236 30.096 123.124 26.52 124.9 23.4C126.676 20.28 129.1 17.88 132.172 16.2C135.244 14.52 138.676 13.68 142.468 13.68C146.26 13.68 149.692 14.52 152.764 16.2C155.836 17.88 158.26 20.28 160.036 23.4C161.812 26.52 162.7 30.096 162.7 34.128C162.7 38.16 161.788 41.736 159.964 44.856C158.14 47.976 155.644 50.4 152.476 52.128C149.356 53.808 145.9 54.648 142.108 54.648ZM142.108 47.52C144.22 47.52 146.188 47.016 148.012 46.008C149.884 45 151.396 43.488 152.548 41.472C153.7 39.456 154.276 37.008 154.276 34.128C154.276 31.248 153.724 28.824 152.62 26.856C151.516 24.84 150.052 23.328 148.228 22.32C146.404 21.312 144.436 20.808 142.324 20.808C140.212 20.808 138.244 21.312 136.42 22.32C134.644 23.328 133.228 24.84 132.172 26.856C131.116 28.824 130.588 31.248 130.588 34.128C130.588 38.4 131.668 41.712 133.828 44.064C136.036 46.368 138.796 47.52 142.108 47.52ZM186.781 33.984C186.781 30 187.597 26.472 189.229 23.4C190.909 20.328 193.165 17.952 195.997 16.272C198.877 14.544 202.045 13.68 205.501 13.68C208.621 13.68 211.333 14.304 213.637 15.552C215.989 16.752 217.861 18.264 219.253 20.088V14.328H227.533V54H219.253V48.096C217.861 49.968 215.965 51.528 213.565 52.776C211.165 54.024 208.429 54.648 205.357 54.648C201.949 54.648 198.829 53.784 195.997 52.056C193.165 50.28 190.909 47.832 189.229 44.712C187.597 41.544 186.781 37.968 186.781 33.984ZM219.253 34.128C219.253 31.392 218.677 29.016 217.525 27C216.421 24.984 214.957 23.448 213.133 22.392C211.309 21.336 209.341 20.808 207.229 20.808C205.117 20.808 203.149 21.336 201.325 22.392C199.501 23.4 198.013 24.912 196.861 26.928C195.757 28.896 195.205 31.248 195.205 33.984C195.205 36.72 195.757 39.12 196.861 41.184C198.013 43.248 199.501 44.832 201.325 45.936C203.197 46.992 205.165 47.52 207.229 47.52C209.341 47.52 211.309 46.992 213.133 45.936C214.957 44.88 216.421 43.344 217.525 41.328C218.677 39.264 219.253 36.864 219.253 34.128ZM246.522 20.16C247.914 18.336 249.81 16.8 252.21 15.552C254.61 14.304 257.322 13.68 260.346 13.68C263.802 13.68 266.946 14.544 269.778 16.272C272.658 17.952 274.914 20.328 276.546 23.4C278.178 26.472 278.994 30 278.994 33.984C278.994 37.968 278.178 41.544 276.546 44.712C274.914 47.832 272.658 50.28 269.778 52.056C266.946 53.784 263.802 54.648 260.346 54.648C257.322 54.648 254.634 54.048 252.282 52.848C249.93 51.6 248.01 50.064 246.522 48.24V72.864H238.314V14.328H246.522V20.16ZM270.642 33.984C270.642 31.248 270.066 28.896 268.914 26.928C267.81 24.912 266.322 23.4 264.45 22.392C262.626 21.336 260.658 20.808 258.546 20.808C256.482 20.808 254.514 21.336 252.642 22.392C250.818 23.448 249.33 24.984 248.178 27C247.074 29.016 246.522 31.392 246.522 34.128C246.522 36.864 247.074 39.264 248.178 41.328C249.33 43.344 250.818 44.88 252.642 45.936C254.514 46.992 256.482 47.52 258.546 47.52C260.658 47.52 262.626 46.992 264.45 45.936C266.322 44.832 267.81 43.248 268.914 41.184C270.066 39.12 270.642 36.72 270.642 33.984ZM295.319 20.16C296.711 18.336 298.607 16.8 301.007 15.552C303.407 14.304 306.119 13.68 309.143 13.68C312.599 13.68 315.743 14.544 318.575 16.272C321.455 17.952 323.711 20.328 325.343 23.4C326.975 26.472 327.791 30 327.791 33.984C327.791 37.968 326.975 41.544 325.343 44.712C323.711 47.832 321.455 50.28 318.575 52.056C315.743 53.784 312.599 54.648 309.143 54.648C306.119 54.648 303.431 54.048 301.079 52.848C298.727 51.6 296.807 50.064 295.319 48.24V72.864H287.111V14.328H295.319V20.16ZM319.439 33.984C319.439 31.248 318.863 28.896 317.711 26.928C316.607 24.912 315.119 23.4 313.247 22.392C311.423 21.336 309.455 20.808 307.343 20.808C305.279 20.808 303.311 21.336 301.439 22.392C299.615 23.448 298.127 24.984 296.975 27C295.871 29.016 295.319 31.392 295.319 34.128C295.319 36.864 295.871 39.264 296.975 41.328C298.127 43.344 299.615 44.88 301.439 45.936C303.311 46.992 305.279 47.52 307.343 47.52C309.455 47.52 311.423 46.992 313.247 45.936C315.119 44.832 316.607 43.248 317.711 41.184C318.863 39.12 319.439 36.72 319.439 33.984ZM364.187 21.024V42.984C364.187 44.472 364.523 45.552 365.195 46.224C365.915 46.848 367.115 47.16 368.795 47.16H373.835V54H367.355C363.659 54 360.827 53.136 358.859 51.408C356.891 49.68 355.907 46.872 355.907 42.984V21.024H351.227V14.328H355.907V4.464H364.187V14.328H373.835V21.024H364.187ZM395.8 54.648C392.68 54.648 389.872 54.096 387.376 52.992C384.928 51.84 382.984 50.304 381.544 48.384C380.104 46.416 379.336 44.232 379.24 41.832H387.736C387.88 43.512 388.672 44.928 390.112 46.08C391.6 47.184 393.448 47.736 395.656 47.736C397.96 47.736 399.736 47.304 400.984 46.44C402.28 45.528 402.928 44.376 402.928 42.984C402.928 41.496 402.208 40.392 400.768 39.672C399.376 38.952 397.144 38.16 394.072 37.296C391.096 36.48 388.672 35.688 386.8 34.92C384.928 34.152 383.296 32.976 381.904 31.392C380.56 29.808 379.888 27.72 379.888 25.128C379.888 23.016 380.512 21.096 381.76 19.368C383.008 17.592 384.784 16.2 387.088 15.192C389.44 14.184 392.128 13.68 395.152 13.68C399.664 13.68 403.288 14.832 406.024 17.136C408.808 19.392 410.296 22.488 410.488 26.424H402.28C402.136 24.648 401.416 23.232 400.12 22.176C398.824 21.12 397.072 20.592 394.864 20.592C392.704 20.592 391.048 21 389.896 21.816C388.744 22.632 388.168 23.712 388.168 25.056C388.168 26.112 388.552 27 389.32 27.72C390.088 28.44 391.024 29.016 392.128 29.448C393.232 29.832 394.864 30.336 397.024 30.96C399.904 31.728 402.256 32.52 404.08 33.336C405.952 34.104 407.56 35.256 408.904 36.792C410.248 38.328 410.944 40.368 410.992 42.912C410.992 45.168 410.368 47.184 409.12 48.96C407.872 50.736 406.096 52.128 403.792 53.136C401.536 54.144 398.872 54.648 395.8 54.648Z" fill="black"/>
</svg>
